<?xml version="1.0" standalone="no"?>
<!DOCTYPE svg PUBLIC "-//W3C//DTD SVG 20010904//EN"
 "http://www.w3.org/TR/2001/REC-SVG-20010904/DTD/svg10.dtd">
<svg version="1.0" xmlns="http://www.w3.org/2000/svg"
 width="260.000000pt" height="260.000000pt" viewBox="0 0 260.000000 260.000000"
 preserveAspectRatio="xMidYMid meet">
<metadata>
Created by potrace 1.11, written by Peter Selinger 2001-2013
</metadata>
<g transform="translate(0.000000,260.000000) scale(0.100000,-0.100000)"
fill="#000000" stroke="none">
<path d="M210 2070 l0 -320 155 0 155 0 0 -445 0 -445 -155 0 -155 0 0 -320 0
-320 320 0 320 0 0 155 0 155 445 0 445 0 0 -155 0 -155 320 0 320 0 0 320 0
320 -155 0 -155 0 0 445 0 445 155 0 155 0 0 320 0 320 -320 0 -320 0 0 -155
0 -155 -445 0 -445 0 0 155 0 155 -320 0 -320 0 0 -320z m630 -155 l0 -155
-155 0 -155 0 0 155 0 155 155 0 155 0 0 -155z m1220 0 l0 -155 -155 0 -155 0
0 155 0 155 155 0 155 0 0 -155z m-1220 -1220 l0 -155 -155 0 -155 0 0 155 0
155 155 0 155 0 0 -155z m1220 0 l0 -155 -155 0 -155 0 0 155 0 155 155 0 155
0 0 -155z"/>
</g>
</svg>
